<?xml version="1.0" encoding="UTF-8" ?>
<!DOCTYPE svg PUBLIC "-//W3C//DTD SVG 1.1//EN" "http://www.w3.org/Graphics/SVG/1.1/DTD/svg11.dtd">
<svg width="179pt" height="183pt" viewBox="0 0 179 183" version="1.1" xmlns="http://www.w3.org/2000/svg">
<path fill="#ffffff" d=" M 0.00 0.00 L 179.00 0.00 L 179.00 29.41 C 178.09 23.90 174.73 19.02 169.95 16.17 C 167.01 14.61 163.56 15.10 160.36 15.03 C 160.41 20.69 160.47 26.35 160.44 32.01 C 160.84 37.23 156.24 41.50 151.46 42.58 C 143.82 44.76 133.98 43.39 129.76 35.90 C 129.29 28.99 129.67 22.04 129.66 15.11 C 121.46 14.89 113.25 15.01 105.05 15.04 C 104.93 21.94 105.07 28.85 104.95 35.76 C 102.24 38.26 99.87 41.64 96.00 42.32 C 90.79 43.47 84.96 43.65 80.19 40.91 C 77.16 39.31 74.16 36.64 74.11 32.95 C 73.78 26.99 74.14 21.01 73.95 15.04 C 66.08 15.01 58.21 14.90 50.34 15.11 C 50.42 20.41 50.47 25.71 50.44 31.01 C 50.40 33.75 50.17 37.00 47.71 38.74 C 42.79 43.01 35.73 43.83 29.54 42.56 C 25.27 41.41 20.20 38.89 19.66 33.95 C 19.40 27.66 19.65 21.35 19.63 15.05 C 15.66 14.82 11.42 14.75 8.03 17.17 C 3.21 19.68 1.68 25.21 0.00 29.95 L 0.00 0.00 Z" />
<path fill="#2199e8" d=" M 27.35 3.16 C 31.00 0.45 35.93 0.28 40.10 1.78 C 42.28 3.05 41.96 5.83 42.03 7.98 C 41.89 15.70 42.17 23.44 41.90 31.15 C 42.04 33.06 40.07 33.94 38.56 34.42 C 34.71 35.35 29.93 35.15 27.33 31.73 C 27.49 22.21 27.45 12.68 27.35 3.16 Z" />
<path fill="#2199e8" d=" M 83.02 4.99 C 82.78 1.94 86.49 0.71 88.98 0.89 C 91.77 0.77 95.94 0.77 96.90 4.00 C 97.12 13.63 97.00 23.28 96.93 32.91 C 92.68 35.43 87.25 35.59 83.05 32.86 C 82.97 23.57 82.97 14.28 83.02 4.99 Z" />
<path fill="#2199e8" d=" M 137.23 3.28 C 139.53 0.27 143.76 0.65 147.10 1.04 C 148.96 1.35 151.25 2.77 150.98 4.92 C 150.92 14.19 151.24 23.49 150.81 32.75 C 146.99 35.98 141.17 35.23 137.06 32.89 C 137.09 23.02 136.71 13.12 137.23 3.28 Z" />
<path fill="#2199e8" d=" M 8.03 17.17 C 11.42 14.75 15.66 14.82 19.63 15.05 C 19.65 21.35 19.40 27.66 19.66 33.95 C 20.20 38.89 25.27 41.41 29.54 42.56 C 35.73 43.83 42.79 43.01 47.71 38.74 C 50.17 37.00 50.40 33.75 50.44 31.01 C 50.47 25.71 50.42 20.41 50.34 15.11 C 58.21 14.90 66.08 15.01 73.95 15.04 C 74.14 21.01 73.78 26.99 74.11 32.95 C 74.16 36.64 77.16 39.31 80.19 40.91 C 84.96 43.65 90.79 43.47 96.00 42.32 C 99.87 41.64 102.24 38.26 104.95 35.76 C 105.07 28.85 104.93 21.94 105.05 15.04 C 113.25 15.01 121.46 14.89 129.66 15.11 C 129.67 22.04 129.29 28.99 129.76 35.90 C 133.98 43.39 143.82 44.76 151.46 42.58 C 156.24 41.50 160.84 37.23 160.44 32.01 C 160.47 26.35 160.41 20.69 160.36 15.03 C 163.56 15.10 167.01 14.61 169.95 16.17 C 174.73 19.02 178.09 23.90 179.00 29.41 L 179.00 167.59 C 178.37 171.47 177.29 175.55 174.25 178.27 C 171.74 181.03 168.07 182.15 164.56 183.00 L 15.41 183.00 C 11.12 182.41 6.67 180.73 4.11 177.05 C 1.76 174.07 1.06 170.25 0.00 166.71 L 0.00 29.95 C 1.68 25.21 3.21 19.68 8.03 17.17 Z" />
<path fill="#ffffff" d=" M 13.99 57.91 C 15.61 57.42 17.26 56.93 18.97 56.98 C 66.68 57.03 114.39 56.98 162.10 57.00 C 163.27 57.03 165.58 57.16 165.35 58.87 C 165.53 92.90 165.34 126.95 165.44 161.00 C 165.46 163.40 165.36 165.81 165.17 168.21 C 159.79 168.59 154.39 168.36 149.00 168.42 C 104.63 168.48 60.26 168.30 15.89 168.51 C 14.92 167.53 13.69 166.59 14.01 165.02 C 13.99 129.32 14.01 93.61 13.99 57.91 Z" />
<path fill="#ffffff" d=" M 0.00 166.71 C 1.06 170.25 1.76 174.07 4.11 177.05 C 6.67 180.73 11.12 182.41 15.41 183.00 L 0.00 183.00 L 0.00 166.71 Z" />
<path fill="#ffffff" d=" M 174.25 178.27 C 177.29 175.55 178.37 171.47 179.00 167.59 L 179.00 183.00 L 164.56 183.00 C 168.07 182.15 171.74 181.03 174.25 178.27 Z" />
</svg>
