<?xml version="1.0" encoding="UTF-8" ?>
<!DOCTYPE svg PUBLIC "-//W3C//DTD SVG 1.1//EN" "http://www.w3.org/Graphics/SVG/1.1/DTD/svg11.dtd">
<svg width="173pt" height="225pt" viewBox="0 0 173 225" version="1.1" xmlns="http://www.w3.org/2000/svg">
<path fill="#ffffff" d=" M 0.00 0.00 L 77.94 0.00 C 75.65 2.58 74.07 5.66 72.54 8.72 C 69.22 8.94 65.90 9.18 62.58 9.42 C 61.74 11.59 60.94 13.77 60.13 15.94 C 56.85 17.09 53.43 18.31 51.04 20.96 C 48.90 22.84 47.15 25.79 44.01 25.90 C 32.77 26.67 21.45 25.18 10.23 26.33 C 5.57 26.82 2.04 30.35 0.00 34.35 L 0.00 0.00 Z" />
<path fill="#2199e8" d=" M 77.94 0.00 L 95.93 0.00 C 97.53 2.80 99.07 5.63 100.56 8.49 C 103.71 8.84 106.85 9.19 110.00 9.59 C 111.63 13.33 114.37 16.37 118.12 18.07 C 122.55 20.04 124.64 25.96 129.90 26.00 C 140.85 26.51 151.85 25.27 162.78 26.32 C 167.56 26.64 171.09 30.28 173.00 34.41 L 173.00 216.74 C 171.33 220.39 168.39 223.33 164.74 225.00 L 8.25 225.00 C 4.61 223.32 1.67 220.38 0.00 216.74 L 0.00 34.35 C 2.04 30.35 5.57 26.82 10.23 26.33 C 21.45 25.18 32.77 26.67 44.01 25.90 C 47.15 25.79 48.90 22.84 51.04 20.96 C 53.43 18.31 56.85 17.09 60.13 15.94 C 60.94 13.77 61.74 11.59 62.58 9.42 C 65.90 9.18 69.22 8.94 72.54 8.72 C 74.07 5.66 75.65 2.58 77.94 0.00 Z" />
<path fill="#ffffff" d=" M 95.93 0.00 L 173.00 0.00 L 173.00 34.41 C 171.09 30.28 167.56 26.64 162.78 26.32 C 151.85 25.27 140.85 26.51 129.90 26.00 C 124.64 25.96 122.55 20.04 118.12 18.07 C 114.37 16.37 111.63 13.33 110.00 9.59 C 106.85 9.19 103.71 8.84 100.56 8.49 C 99.07 5.63 97.53 2.80 95.93 0.00 Z" />
<path fill="#ffffff" d=" M 19.35 39.40 C 20.85 39.03 22.40 38.99 23.94 38.94 C 65.98 39.06 108.02 38.99 150.06 38.97 C 152.95 38.94 156.02 39.76 157.88 42.13 C 160.09 44.49 160.02 47.93 160.08 50.95 C 160.04 58.30 159.94 65.65 160.00 73.00 C 160.89 115.00 160.16 157.01 160.51 199.01 C 160.43 202.71 160.67 206.99 157.90 209.87 C 156.01 212.21 152.97 213.07 150.06 213.03 C 108.36 213.00 66.65 212.96 24.95 213.05 C 21.07 213.04 16.42 212.44 14.27 208.73 C 11.82 204.25 12.68 198.90 12.53 194.00 C 12.76 174.33 12.18 154.65 12.99 135.00 C 13.01 106.31 13.01 77.62 12.97 48.94 C 12.69 44.79 15.18 40.45 19.35 39.40 Z" />
<path fill="#2199e8" d=" M 26.07 61.07 C 34.69 60.94 43.31 60.94 51.93 61.07 C 52.06 69.69 52.06 78.31 51.93 86.93 C 43.31 87.06 34.69 87.06 26.07 86.93 C 25.94 78.31 25.94 69.69 26.07 61.07 Z" />
<path fill="#ffffff" d=" M 30.22 65.23 C 36.06 64.85 41.92 64.85 47.75 65.25 C 48.13 70.75 48.13 76.27 47.77 81.76 C 41.92 82.14 36.05 82.13 30.20 81.79 C 29.88 76.27 29.88 70.74 30.22 65.23 Z" />
<path fill="#2199e8" d=" M 61.03 69.07 C 89.67 68.95 118.33 68.95 146.97 69.07 C 146.98 72.02 146.98 74.97 146.97 77.93 C 118.32 78.05 89.67 78.05 61.03 77.93 C 61.02 74.97 61.02 72.02 61.03 69.07 Z" />
<path fill="#2199e8" d=" M 26.07 96.07 C 34.69 95.94 43.31 95.94 51.93 96.07 C 52.05 104.61 52.21 113.17 51.59 121.69 C 43.09 122.26 34.57 122.00 26.07 121.93 C 25.94 113.31 25.94 104.69 26.07 96.07 Z" />
<path fill="#ffffff" d=" M 30.20 100.21 C 36.05 99.87 41.92 99.86 47.77 100.24 C 48.13 105.74 48.13 111.26 47.77 116.76 C 41.92 117.13 36.05 117.13 30.20 116.79 C 29.89 111.27 29.89 105.73 30.20 100.21 Z" />
<path fill="#2199e8" d=" M 61.03 104.07 C 80.69 103.87 100.35 104.08 120.01 104.05 C 128.97 104.52 137.95 104.44 146.92 104.35 C 146.94 107.12 146.94 109.88 146.92 112.64 C 118.29 112.14 89.66 113.28 61.03 112.93 C 61.02 109.98 61.02 107.02 61.03 104.07 Z" />
<path fill="#2199e8" d=" M 26.07 130.07 C 34.61 129.94 43.16 129.84 51.70 130.31 C 51.67 138.83 51.49 147.35 51.64 155.86 C 43.12 156.10 34.59 156.05 26.07 155.93 C 25.94 147.31 25.94 138.69 26.07 130.07 Z" />
<path fill="#ffffff" d=" M 30.20 135.21 C 36.05 134.87 41.92 134.86 47.77 135.24 C 48.13 140.74 48.13 146.26 47.76 151.76 C 41.92 152.14 36.05 152.13 30.21 151.78 C 29.89 146.26 29.89 140.73 30.20 135.21 Z" />
<path fill="#2199e8" d=" M 61.00 139.07 C 89.66 138.95 118.33 138.95 147.00 139.07 C 146.98 141.93 146.94 144.78 146.89 147.64 C 118.30 147.53 89.70 147.52 61.10 147.64 C 61.05 144.78 61.02 141.93 61.00 139.07 Z" />
<path fill="#2199e8" d=" M 26.07 165.07 C 34.59 164.95 43.12 164.90 51.64 165.13 C 51.52 173.58 51.67 182.03 51.47 190.47 C 43.03 190.67 34.58 190.52 26.13 190.64 C 25.90 182.12 25.95 173.59 26.07 165.07 Z" />
<path fill="#ffffff" d=" M 30.63 169.62 C 36.17 168.10 42.06 169.18 47.72 169.29 C 48.16 175.08 48.16 180.91 47.72 186.71 C 42.03 186.87 36.17 187.81 30.57 186.43 C 29.53 180.96 29.37 175.05 30.63 169.62 Z" />
<path fill="#2199e8" d=" M 61.03 174.08 C 89.67 173.95 118.32 173.94 146.97 174.08 C 146.98 176.69 146.98 179.31 146.97 181.92 C 118.33 182.06 89.67 182.05 61.03 181.92 C 61.02 179.31 61.02 176.69 61.03 174.08 Z" />
<path fill="#ffffff" d=" M 0.00 216.74 C 1.67 220.38 4.61 223.32 8.25 225.00 L 0.00 225.00 L 0.00 216.74 Z" />
<path fill="#ffffff" d=" M 164.74 225.00 C 168.39 223.33 171.33 220.39 173.00 216.74 L 173.00 225.00 L 164.74 225.00 Z" />
</svg>
