<?xml version="1.0" encoding="UTF-8" ?>
<!DOCTYPE svg PUBLIC "-//W3C//DTD SVG 1.1//EN" "http://www.w3.org/Graphics/SVG/1.1/DTD/svg11.dtd">
<svg width="238pt" height="191pt" viewBox="0 0 238 191" version="1.1" xmlns="http://www.w3.org/2000/svg">
<path fill="#ffffff" d=" M 0.00 0.00 L 238.00 0.00 L 238.00 191.00 L 90.66 191.00 C 96.34 190.28 103.09 189.78 106.69 184.65 C 110.23 179.20 109.56 172.30 110.68 166.14 C 111.64 156.29 114.81 145.54 109.71 136.30 C 103.79 125.36 91.43 120.18 79.93 117.35 C 60.87 113.03 40.32 113.72 22.06 121.00 C 12.73 124.76 3.74 131.82 1.34 142.03 C -0.39 150.68 2.01 159.41 2.78 168.03 C 3.87 173.96 3.13 180.80 7.34 185.64 C 11.10 189.83 17.10 190.27 22.32 191.00 L 0.00 191.00 L 0.00 0.00 Z" />
<path fill="#2697d3" d=" M 91.96 11.06 C 107.34 4.07 124.24 1.26 141.01 0.39 C 166.97 0.63 193.88 7.06 214.50 23.52 C 228.11 34.35 238.60 50.98 237.15 68.93 C 236.94 83.22 229.04 96.28 218.86 105.82 C 199.12 123.99 171.76 131.86 145.37 132.36 C 140.11 140.76 132.81 148.07 123.89 152.52 C 122.45 150.27 121.28 147.82 120.72 145.18 C 129.54 140.87 136.20 133.07 140.78 124.53 C 162.48 124.89 184.71 120.01 203.14 108.22 C 214.25 101.08 224.02 90.86 228.01 78.03 C 231.89 66.00 229.05 52.48 221.79 42.32 C 212.23 28.63 197.15 19.81 181.58 14.54 C 160.17 7.54 136.83 6.65 114.89 11.67 C 99.97 15.18 85.50 21.65 73.96 31.87 C 71.98 30.16 70.11 28.27 68.74 26.03 C 75.36 19.60 83.59 14.91 91.96 11.06 Z" />
<path fill="#2697d3" d=" M 122.61 49.35 C 120.20 37.01 132.01 25.42 144.04 25.26 C 149.21 25.46 154.61 24.51 159.54 26.52 C 167.79 29.62 174.07 38.05 173.79 46.99 C 173.96 52.92 171.35 58.86 166.75 62.63 C 163.10 66.67 158.09 69.85 156.27 75.23 C 155.48 77.97 155.16 80.83 154.42 83.59 C 149.19 83.65 143.77 84.19 138.63 83.38 C 137.17 75.93 139.73 68.04 144.13 61.95 C 147.23 57.09 153.00 54.84 156.15 50.04 C 158.20 46.58 155.60 41.94 151.99 40.87 C 148.28 39.97 143.81 39.97 140.98 42.91 C 138.72 44.47 138.34 47.26 137.89 49.74 C 132.82 49.45 127.55 50.30 122.61 49.35 Z" />
<path fill="#2697d3" d=" M 49.10 41.15 C 57.22 39.21 66.14 40.24 73.36 44.53 C 81.27 49.10 87.07 57.03 89.08 65.94 C 90.57 73.89 89.63 82.46 85.35 89.44 C 78.56 101.54 63.52 108.21 50.01 105.01 C 38.75 102.66 29.07 93.92 25.74 82.89 C 22.59 73.32 24.26 62.31 30.15 54.12 C 34.59 47.67 41.51 43.00 49.10 41.15 Z" />
<path fill="#2697d3" d=" M 142.37 90.47 C 146.22 90.37 150.91 89.12 154.04 92.05 C 158.51 95.44 158.30 103.39 153.46 106.38 C 150.56 108.77 146.46 107.51 143.02 107.65 C 134.92 105.97 134.55 92.90 142.37 90.47 Z" />
<path fill="#2697d3" d=" M 22.06 121.00 C 40.32 113.72 60.87 113.03 79.93 117.35 C 91.43 120.18 103.79 125.36 109.71 136.30 C 114.81 145.54 111.64 156.29 110.68 166.14 C 109.56 172.30 110.23 179.20 106.69 184.65 C 103.09 189.78 96.34 190.28 90.66 191.00 L 22.32 191.00 C 17.10 190.27 11.10 189.83 7.34 185.64 C 3.13 180.80 3.87 173.96 2.78 168.03 C 2.01 159.41 -0.39 150.68 1.34 142.03 C 3.74 131.82 12.73 124.76 22.06 121.00 Z" />
</svg>
